<?xml version="1.0" encoding="utf-8"?>
<!-- Generator: Adobe Illustrator 25.2.1, SVG Export Plug-In . SVG Version: 6.00 Build 0)  -->
<svg version="1.1" id="Layer_1" xmlns="http://www.w3.org/2000/svg" xmlns:xlink="http://www.w3.org/1999/xlink" x="0px" y="0px"
	 viewBox="0 0 1920 1080" style="enable-background:new 0 0 1920 1080;" xml:space="preserve">
<style type="text/css">
	.st0{fill:#8852A1;stroke:#000000;stroke-miterlimit:10;}
</style>
<rect x="-75.13" y="-49.19" class="st0" width="2053.16" height="1186.84"/>
<g>
	<g>
		<path d="M957.21,422.41l1.75-16.65c0,0,4.09-13.15,16.65-7.3c0.58,0.58,84.44,42.66,90.86,47.04c2.92,2.92,8.18,10.81,0.29,19.28
			c0.29,0.58-95.54,33.31-95.83,33.31c-6.72,3.8-18.11-0.29-18.7-8.77c0-0.29,1.46-16.95,1.46-16.95s-73.33-6.72-124.76,45.58
			C827.19,483.18,872.18,424.16,957.21,422.41z"/>
		<path d="M869.85,492.53c0,0-22.5,45.58-17.24,81.22c0.29,0-17.82-8.18-23.37-52.88C833.62,515.03,864,493.7,869.85,492.53z"/>
	</g>
	<g>
		<path d="M963.6,657.48l-1.61,16.67c0,0-3.98,13.18-16.59,7.45c-0.59-0.58-84.8-41.93-91.27-46.26c-2.95-2.9-8.27-10.74-0.46-19.28
			c-0.3-0.58,95.25-34.13,95.54-34.13c6.69-3.86,18.12,0.14,18.77,8.6c0,0.29-1.32,16.96-1.32,16.96s73.39,6.09,124.36-46.65
			C1093.09,595.6,1048.6,655,963.6,657.48z"/>
		<path d="M1050.35,586.62c0,0,22.11-45.77,16.54-81.37c-0.29,0,17.89,8.03,23.83,52.68
			C1086.39,563.81,1056.19,585.4,1050.35,586.62z"/>
	</g>
</g>
</svg>
