<?xml version="1.0" encoding="utf-8"?>
<!-- Generator: Adobe Illustrator 25.2.1, SVG Export Plug-In . SVG Version: 6.00 Build 0)  -->
<svg version="1.1" id="Layer_1" xmlns="http://www.w3.org/2000/svg" xmlns:xlink="http://www.w3.org/1999/xlink" x="0px" y="0px"
	 viewBox="0 0 1920 1080" style="enable-background:new 0 0 1920 1080;" xml:space="preserve">
<style type="text/css">
	.st0{fill:#9ACB53;stroke:#000000;stroke-miterlimit:10;}
	.st1{stroke:#000000;stroke-miterlimit:10;}
	.st2{fill:#9ACB53;}
</style>
<rect x="-54.23" y="-32.94" class="st0" width="2016" height="1161.29"/>
<g>
	<g>
		<path class="st1" d="M951.15,453.65L922.76,513l21.16-2.06l16-31.48l16,33.03L997.6,513l-27.87-57.81
			C969.73,455.2,962.5,438.68,951.15,453.65z"/>
		<circle class="st2" cx="959.79" cy="460.16" r="3.42"/>
	</g>
	<g>
		<path class="st1" d="M849.6,509.78c-12-1.55-13.16,19.74-3.23,20.77c1.03,1.03,7.74,1.03,7.74,1.03l12.39,92.39
			c0,0,5.16,10.84,16,8.26l161.03-0.52c0,0,6.19,0,9.81-8.77c0,0.52,11.35-91.87,11.35-91.87h6.71c9.29-0.52,14.45-18.58-0.52-21.16
			C1071.4,510.94,935.53,509,849.6,509.78z"/>
		<g>
			<path class="st2" d="M898.76,552.74c0,0,7.74-13.16,17.81,0c0.39,1.16,0.77,47.23,0.77,47.23s-9.29,12.77-18.97,0.39
				C898.37,599.97,898.76,552.74,898.76,552.74z"/>
			<path class="st2" d="M951.02,553.13c0,0,7.74-13.16,17.81,0c0.39,1.16,0.77,47.23,0.77,47.23s-9.29,12.77-18.97,0.39
				C950.63,600.36,951.02,553.13,951.02,553.13z"/>
			<path class="st2" d="M1002.5,552.74c0,0,7.74-13.16,17.81,0c0.39,1.16,0.77,47.23,0.77,47.23s-9.29,12.77-18.97,0.39
				C1002.11,599.97,1002.5,552.74,1002.5,552.74z"/>
		</g>
	</g>
</g>
</svg>
