<?xml version="1.0" encoding="utf-8"?>
<!-- Generator: Adobe Illustrator 25.2.1, SVG Export Plug-In . SVG Version: 6.00 Build 0)  -->
<svg version="1.1" id="Layer_1" xmlns="http://www.w3.org/2000/svg" xmlns:xlink="http://www.w3.org/1999/xlink" x="0px" y="0px"
	 viewBox="0 0 1920 1080" style="enable-background:new 0 0 1920 1080;" xml:space="preserve">
<style type="text/css">
	.st0{fill:#E6AF2C;}
</style>
<rect x="-47.26" y="-32.94" class="st0" width="1997.42" height="1140.39"/>
<g>
	<g>
		<path d="M1004.25,419.9l-89.75,153.86l28.4-2.28c0,0,78.58-131.81,82.35-139.7C1031.33,419.07,1015.58,405.25,1004.25,419.9z"/>
		<path d="M900.9,592.06l-6.7,9.05l-0.21,3.94l1.24,2.49c0,0,1.45-5.6-1.66,2.49c-4.56,10.57,9.74,21.35,20.73,10.57
			c0,0.21,4.35-2.9,4.35-2.9l6.22-8.29l0.62-2.49v-2.07l-1.24-2.28l7.25-11.61L900.9,592.06z"/>
		<path d="M928.81,603.39l56.38,5.8l4.97,57.21l-76.69-41.87C913.47,624.53,933.78,622.05,928.81,603.39z"/>
	</g>
	<g>
		<path d="M872.43,579.63l-37.03-18.24l-6.91-3.59c0,0-10.78-7.19-12.44,1.93c0,1.11-3.59,36.2,3.59,57.76
			c0.28,0.55,4.15,6.63,10.78,0.55c-0.28,0.28,43.94-29.02,43.94-29.02s80.14,2.49,150.34-8.01c0.55,0.28,2.49,2.21,2.49,2.21
			l2.49,8.57c0,0,1.38,12.44,0,17.13c0.28,0.28-0.83,4.7,4.7,4.15c0.28,0.28,70.47-6.08,70.47-6.08l-71.3,1.38l-1.38-17.96
			l71.02-5.8l-70.75,1.93l-1.93-21l71.02-6.36l-70.75,1.66c0,0,0-21.56-1.66-21.83c0,0.55,71.58-5.8,71.58-5.8l-69.36,1.66
			c0,0-5.8-1.38-5.53,4.15c0,0.55,4.42,14.09,0.83,23.49l-0.83,7.74C1025.81,570.23,878.51,576.03,872.43,579.63z"/>
		<path class="st0" d="M832.64,573.34c0,0-4.77,19.69,1.66,27.57c0.21,0.21,0.41,2.69,10.57-1.66c0,0,10.98-5.8,15.75-13.26
			c0,0.21-13.68-12.64-22.8-13.06C837.82,573.13,833.67,571.27,832.64,573.34z"/>
	</g>
</g>
</svg>
