<svg xmlns="http://www.w3.org/2000/svg" width="23.736" height="31.648" viewBox="0 0 23.736 31.648">
  <path id="child-solid" d="M7.418,4.45a4.45,4.45,0,1,1,4.45,4.45A4.45,4.45,0,0,1,7.418,4.45Zm15.739.085a1.978,1.978,0,0,0-2.8,0L15,9.89H8.731L3.377,4.535a1.978,1.978,0,1,0-2.8,2.8l5.849,5.849V29.67a1.978,1.978,0,0,0,1.978,1.978H9.4a1.978,1.978,0,0,0,1.978-1.978V22.747h.989V29.67a1.978,1.978,0,0,0,1.978,1.978h.989a1.978,1.978,0,0,0,1.978-1.978V13.182l5.849-5.849A1.978,1.978,0,0,0,23.157,4.535Z" transform="translate(0)" fill="#fffefe"/>
</svg>
