<svg xmlns="http://www.w3.org/2000/svg" width="66.94" height="73.035" viewBox="0 0 66.94 73.035">
  <g id="Group_257" data-name="Group 257" transform="translate(0)" fill="#fff">
    <g id="Group_255" data-name="Group 255">
      <path id="Path_48" data-name="Path 48" d="M861.643,403.457l.447-4.251s1.044-3.357,4.251-1.864c.148.148,21.557,10.891,23.2,12.009a3.339,3.339,0,0,1,.074,4.922c.074.148-24.391,8.5-24.465,8.5-1.716.97-4.623-.074-4.774-2.239,0-.074.373-4.327.373-4.327s-18.721-1.716-31.85,11.636C828.45,418.972,839.935,403.9,861.643,403.457Z" transform="translate(-828.882 -396.96)"/>
      <path id="Path_49" data-name="Path 49" d="M839.607,492.53s-5.744,11.636-4.4,20.735c.074,0-4.549-2.088-5.966-13.5C830.358,498.274,838.114,492.829,839.607,492.53Z" transform="translate(-829.148 -468.132)"/>
    </g>
    <g id="Group_256" data-name="Group 256" transform="translate(5.29 27.646)">
      <path id="Path_50" data-name="Path 50" d="M878.706,585.512l-.411,4.256s-1.016,3.365-4.235,1.9c-.151-.148-21.649-10.7-23.3-11.81a3.34,3.34,0,0,1-.117-4.922c-.077-.148,24.317-8.713,24.391-8.713,1.708-.985,4.626.036,4.792,2.2,0,.074-.337,4.33-.337,4.33s18.736,1.555,31.748-11.909C911.764,569.714,900.406,584.878,878.706,585.512Z" transform="translate(-849.603 -546.648)"/>
      <path id="Path_51" data-name="Path 51" d="M1050.35,526.023s5.645-11.685,4.223-20.773c-.074,0,4.567,2.05,6.084,13.449C1059.551,520.2,1051.841,525.712,1050.35,526.023Z" transform="translate(-999.101 -505.25)"/>
    </g>
  </g>
</svg>
