<svg xmlns="http://www.w3.org/2000/svg" width="427.722" height="427.747" viewBox="0 0 427.722 427.747">
  <g id="Group_251" data-name="Group 251" transform="translate(-746.182 -370.286)">
    <g id="Rectangle_42" data-name="Rectangle 42" transform="matrix(0.719, -0.695, 0.695, 0.719, 746.182, 580.072)" fill="#e6af2e" stroke="#000" stroke-width="1">
      <rect width="302" height="303" rx="41" stroke="none"/>
      <rect x="0.5" y="0.5" width="301" height="302" rx="40.5" fill="none"/>
    </g>
    <g id="ms4-logo" transform="translate(836.4 464.58)">
      <path id="Path_22" data-name="Path 22" d="M44.741,177a48.079,48.079,0,0,1-11.218-17.681l-11.34-18.778L6.7,110.427l-6.1-8.17c.244-.488,1.219-2.683,3.048-3.048,1.341-.244,2.683.488,4.39,1.585.61.366,1.585,1.1,2.073,1.341,0,0,.854.61,1.585,1.1,4.634,3.414,13.291,18.656,13.291,18.656.366.61.61,1.1.854,1.463a8.124,8.124,0,0,0-4.39,4.146c-1.463,4.024,2.317,8.536,3.048,9.267s2.073,2.195,3.17,3.292,1.463,1.341,2.439,2.439c.854.854,1.585,1.707,3.292,3.414a32.851,32.851,0,0,0,2.926,2.926c1.707,1.707,2.683,2.561,5,5,6.219,5.975,6.828,7.316,10.487,10.609a53.615,53.615,0,0,0,8.414,6.219,33.923,33.923,0,0,0-5.365-8.779,22.642,22.642,0,0,0-3.536-3.292c-.732-.488-1.585-1.1-1.951-1.341-1.1-.732-1.829-1.219-2.317-1.463a21.406,21.406,0,0,1-3.658-2.926c-4.877-4.39-9.023-8.658-9.023-8.658-3.292-3.414-6.341-6.585-8.9-9.389a5.318,5.318,0,0,1-1.829-3.048,7.382,7.382,0,0,1,0-2.317,5.743,5.743,0,0,1,2.561-2.8c1.707-.732,3.658-.366,7.072,1.1a45.891,45.891,0,0,1,9.877,6.1,113.63,113.63,0,0,1,9.267,7.926l13.657,8.292,19.632,7.8,14.023,8.414,11.95,11.584s10.73,8.414,10.487,21.7,0,16.462,0,16.462l-.122.61-38.288-.366v-9.633A115.611,115.611,0,0,0,61.569,188.1C54.618,184.2,50.107,182.37,44.741,177Z" transform="translate(0 21.64)" fill="#fff6e9" stroke="#000" stroke-miterlimit="10" stroke-width="1"/>
      <path id="Path_23" data-name="Path 23" d="M62.814,148.72a6.244,6.244,0,0,1-3.658-.122c-19.022-14.511-26.216-19.632-28.411-20.729-.975-.488-1.829-1.1-2.8-1.585-2.195-1.219-3.658-1.829-4.877-3.536-.122-.244-.244-.366-.244-.488a152.413,152.413,0,0,0-2.439-15.608L16.722,89.946,16.6,87.263A3.7,3.7,0,0,1,19.161,85.8c1.219,0,2.926.854,5.975,6.828a68.564,68.564,0,0,1,4.877,13.779c1.341,4.756,1.707,7.316,3.658,11.34.244.61,2.683,5.609,3.78,5.365.366-.122.488-1.219.488-2.195-2.195-8.779-4.39-17.559-6.585-26.46a3.447,3.447,0,0,1,1.707-2.195c1.585-.488,4.024.975,5.121,4.146.732,2.317,1.585,4.634,2.439,7.072.975,2.8,2.073,5.609,3.048,8.414l3.536,12.316a48.93,48.93,0,0,0,3.536,9.145,13.3,13.3,0,0,0,.732,1.341l1.219.122.366-1.1c-1.1-3.658-2.073-7.438-3.17-11.1-.244-.854-.366-1.341-.366-1.341-.366-1.1-.61-2.195-.975-3.17a9.159,9.159,0,0,1-.61-3.17v-.488a3.372,3.372,0,0,1,1.585-2.439c1.219-.366,3.048,2.561,3.536,3.414,2.195,3.658,2.561,6.463,4.024,11.706.61,2.317,1.341,4.634,2.683,9.267,1.219,3.9,2.317,7.072,3.048,9.267a2.827,2.827,0,0,1,.366,1.951A1.967,1.967,0,0,1,62.814,148.72Z" transform="translate(3.51 18.709)" fill="#fff6e9" stroke="#000" stroke-miterlimit="10" stroke-width="1"/>
      <path id="Path_24" data-name="Path 24" d="M102.969,216.89l37.679.366c0-2.8-.122-5.731-.122-8.536-.122-4.268,7.8-10.121,11.34-12.194s26.46-18.291,26.46-18.291,8.779-8.414,11.706-17.315,14.267-22.8,15.486-25.607,18.047-32.8,18.047-32.8c.488-1.219.366-1.829.122-2.195-1.1-1.707-6.828.366-8.658,1.1l-6.707,7.072-8.536,12.925s-.61,2.317.975,3.048,5.243,4.146,2.926,7.316l-3.414,5.609-6.463,9.023-5.975,6.828-9.145,6.95-14.267,10.365a4.893,4.893,0,0,1,.366-1.829,4.592,4.592,0,0,1,1.1-1.829,33.229,33.229,0,0,1,2.8-3.048c2.683-2.317,2.317-2.561,4.512-4.39,1.707-1.463,1.951-1.341,6.1-4.146,2.439-1.585,3.78-2.561,5.243-3.658a53.92,53.92,0,0,0,6.463-6.463,95.656,95.656,0,0,0,8.048-10.487l1.585-2.073s1.829-6.463-4.756-5.731-8.048,2.561-8.048,2.561l-7.56,4.756s-6.463,5.243-8.658,7.194-4.878,4.877-7.072,5.853-9.633,3.78-9.633,3.78l-12.438,5-9.633,5.365-10,7.194-9.023,7.682-6.828,8.048a18.931,18.931,0,0,0-2.926,5.609,36.486,36.486,0,0,0-.976,3.9,29.486,29.486,0,0,0-.488,5.731C102.482,206.038,102.969,216.4,102.969,216.89Z" transform="translate(22.372 21.75)" fill="#fff6e9" stroke="#000" stroke-miterlimit="10" stroke-width="1"/>
      <path id="Path_25" data-name="Path 25" d="M195,99.7" transform="translate(42.646 21.759)" fill="#fff" stroke="#000" stroke-miterlimit="10" stroke-width="1"/>
      <path id="Path_26" data-name="Path 26" d="M188.523,120.935l-.732,1.585-16.705,11.95L150.723,149.1s-6.463,2.073-4.024-1.219a35.964,35.964,0,0,0,4.024-8.779c.976-3.78,2.073-7.56,3.048-11.34a36.431,36.431,0,0,1,6.341-12.194c.976-1.1,3.048-3.658,4.024-3.292s.488,2.683.366,3.9l-2.561,8.779-3.78,11.584a1.274,1.274,0,0,0,.975-.244,8.49,8.49,0,0,0,2.8-4.268c1.219-4.268,2.926-8.414,4.146-12.8.61-2.073,1.219-3.78,1.585-5,1.1-3.414,2.073-6.95,3.17-10.365a25.858,25.858,0,0,1,3.414-6.219,30.637,30.637,0,0,1,3.17-3.78c.732-.61,1.707-1.341,2.439-.976.854.488.488,2.8.366,3.78-1.585,9.511-6.1,26.338-6.1,26.338h0a16.391,16.391,0,0,0,3.78-4.39c2.561-4.146,2.683-7.8,3.536-12.56a66.558,66.558,0,0,1,3.536-12.56,13.513,13.513,0,0,1,2.561-5.121c1.1-1.219,3.048-3.536,5.487-3.17a4.078,4.078,0,0,1,2.8,1.707c.976,1.341.488,3.17-.244,5.609-1.219,4.024-2.317,6.95-2.683,8.048a65.557,65.557,0,0,0-2.683,10.974A56.624,56.624,0,0,0,188.523,120.935Z" transform="translate(31.929 18.571)" fill="#fff6e9" stroke="#000" stroke-miterlimit="10" stroke-width="1"/>
      <path id="Path_27" data-name="Path 27" d="M197.5,92.1" transform="translate(43.194 20.091)" fill="#fff" stroke="#000" stroke-miterlimit="10" stroke-width="1"/>
      <path id="Path_28" data-name="Path 28" d="M11.2,127.8" transform="translate(2.325 27.923)" fill="none" stroke="#000" stroke-miterlimit="10" stroke-width="1"/>
      <path id="Path_29" data-name="Path 29" d="M30.3,130.1" transform="translate(6.515 28.428)" fill="none" stroke="#000" stroke-miterlimit="10" stroke-width="1"/>
      <path id="Path_30" data-name="Path 30" d="M60.4,150.4" transform="translate(13.118 32.881)" fill="none" stroke="#000" stroke-miterlimit="10" stroke-width="1"/>
      <path id="Path_31" data-name="Path 31" d="M40.2,122.6" transform="translate(8.687 26.782)" fill="none" stroke="#000" stroke-miterlimit="10" stroke-width="1"/>
      <path id="Path_32" data-name="Path 32" d="M99.8,166.508c2.317-1.707,4.39-3.048,5.853-4.146,1.707-1.219,2.683-1.829,3.78-2.561.61-.366,1.829-1.219,3.536-2.195l1.829-1.1,3.048-1.829c.854-.488,2.561-1.463,5.853-3.292,2.926-1.707,3.414-1.951,4.756-2.683,5.731-3.414,12.072-7.56,12.072-7.56,8.658-5.731,13.047-8.536,16.583-11.218s8.658-6.585,14.389-11.706a88.1,88.1,0,0,0,18.778-24.631,97.97,97.97,0,0,0,4.39-11.828,80.2,80.2,0,0,0,2.561-11.95,48.853,48.853,0,0,0,.61-8.414,55.149,55.149,0,0,0-.975-7.682,73.1,73.1,0,0,0-1.585-7.438,64.215,64.215,0,0,0-2.317-6.828,42.653,42.653,0,0,0-3.78-6.463,34.044,34.044,0,0,0-5.121-5.975,46.824,46.824,0,0,0-7.438-5.487,71.443,71.443,0,0,0-6.707-3.658c-1.951-.732-3.9-1.463-5.975-2.073-6.707-1.951-12.925-2.439-13.047-2.073s8.048.975,17.559,6.341a57.605,57.605,0,0,1,10.73,7.8,31.3,31.3,0,0,1,7.194,10.121c1.463,3.292,1.951,5.853,2.8,10.852a85.4,85.4,0,0,1,1.341,11.218,53.924,53.924,0,0,1-.244,7.682A51.2,51.2,0,0,1,187.839,78.1a70.594,70.594,0,0,1-8.17,18.656c-1.219,1.829-2.683,4.024-4.634,6.463a104.474,104.474,0,0,1-8.292,9.633,136.563,136.563,0,0,1-15.364,13.657c-2.561,2.073-9.023,6.95-17.925,12.8-3.17,2.073-18.656,11.462-22.924,15.364l-2.926,2.683c-2.8,2.561-3.17,2.926-3.658,3.414A38.04,38.04,0,0,0,99.8,166.508Z" transform="translate(21.762 2.872)" fill="#1b1b1b" stroke="#000" stroke-miterlimit="10" stroke-width="0.75"/>
      <path id="Path_33" data-name="Path 33" d="M190.738,23.665A64.639,64.639,0,0,0,175.862,9.154a75.549,75.549,0,0,0-12.438-5.487A68.614,68.614,0,0,0,150.5.619a66.526,66.526,0,0,0-25.851,3.658,53.1,53.1,0,0,0-20.242,14.389A24.632,24.632,0,0,0,97.822,32.81L97.7,36.956a30.743,30.743,0,0,1,2.561-6.585,32.108,32.108,0,0,1,4.634-6.828,57.7,57.7,0,0,1,8.292-7.072,56.133,56.133,0,0,1,7.316-4.512,58.492,58.492,0,0,1,19.876-5.243,65.571,65.571,0,0,1,20.12.61,69.606,69.606,0,0,1,7.194,2.317,99.353,99.353,0,0,1,9.389,3.9,48.391,48.391,0,0,1,4.756,2.8,60.357,60.357,0,0,1,5.243,4.146C188.421,21.714,189.763,22.933,190.738,23.665Z" transform="translate(21.301)" fill="#1b1c1c" stroke="#000" stroke-miterlimit="10" stroke-width="1"/>
      <path id="Path_34" data-name="Path 34" d="M124.123,166.908c-2.317-1.707-4.39-3.048-5.853-4.146-1.707-1.219-2.683-1.829-3.78-2.561-.61-.366-1.829-1.219-3.536-2.195l-1.829-1.1c-1.463-.854-2.317-1.341-3.048-1.829s-2.561-1.463-5.853-3.292c-2.926-1.707-3.414-1.951-4.756-2.683-5.731-3.414-12.072-7.56-12.072-7.56-8.658-5.731-13.047-8.536-16.583-11.218s-8.658-6.585-14.389-11.706a85.389,85.389,0,0,1-11.706-13.169,84.376,84.376,0,0,1-6.95-11.462,97.968,97.968,0,0,1-4.39-11.828A99.57,99.57,0,0,1,26.7,70.211a39.012,39.012,0,0,1-.488-8.414,55.147,55.147,0,0,1,.975-7.682,73.094,73.094,0,0,1,1.585-7.438,64.214,64.214,0,0,1,2.317-6.828,44.694,44.694,0,0,1,8.9-12.438,46.826,46.826,0,0,1,7.438-5.487,71.441,71.441,0,0,1,6.707-3.658c1.951-.732,3.9-1.463,5.975-2.073,6.707-1.951,12.925-2.439,13.047-2.073s-8.048.975-17.559,6.341a57.6,57.6,0,0,0-10.73,7.8A31.3,31.3,0,0,0,37.67,38.386c-1.463,3.292-1.951,5.853-2.8,10.852a85.4,85.4,0,0,0-1.341,11.218,53.924,53.924,0,0,0,.244,7.682A44.164,44.164,0,0,0,36.207,78.5a71.767,71.767,0,0,0,8.048,18.534c1.219,1.829,2.683,4.024,4.634,6.463a106.056,106.056,0,0,0,8.292,9.755,136.564,136.564,0,0,0,15.364,13.657c2.561,2.073,8.9,6.95,17.925,12.8,3.17,2.073,18.656,11.462,22.924,15.364l2.926,2.683a42.954,42.954,0,0,1,3.658,3.414C121.441,163.127,122.9,164.957,124.123,166.908Z" transform="translate(5.608 2.96)" fill="#028dca" stroke="#000" stroke-miterlimit="10" stroke-width="0.75"/>
      <path id="Path_35" data-name="Path 35" d="M28.7,23.885A64.639,64.639,0,0,1,43.576,9.374,75.151,75.151,0,0,1,69.061.716a66.053,66.053,0,0,1,13.9.732,68.354,68.354,0,0,1,11.95,2.926,53.1,53.1,0,0,1,20.242,14.389,24.632,24.632,0,0,1,6.585,14.145l.122,4.146a30.743,30.743,0,0,0-2.561-6.585,32.108,32.108,0,0,0-4.634-6.828,65.177,65.177,0,0,0-8.292-7.072,56.134,56.134,0,0,0-7.316-4.512A62.329,62.329,0,0,0,88.937,8.52a52.514,52.514,0,0,0-9.755-1.585,72.594,72.594,0,0,0-8.9-.488A68.653,68.653,0,0,0,59.062,7.667a69.607,69.607,0,0,0-7.194,2.317,99.352,99.352,0,0,0-9.389,3.9,30.483,30.483,0,0,0-4.756,2.8c-1.829,1.341-3.536,2.683-5.243,4.146A28.862,28.862,0,0,0,28.7,23.885Z" transform="translate(6.164 0.024)" fill="#028dca" stroke="#000" stroke-miterlimit="10" stroke-width="1"/>
      <path id="Path_36" data-name="Path 36" d="M69.2,92.944,81.028,69.288S70.175,52.7,73.224,50.632c0,0,1.341-5.365,11.218,12.925,0,0,8.17,8.292,22.68-9.267,0,0,5,5.487-14.754,18.291A47.641,47.641,0,0,1,78.955,94.164c-1.707.244-2.195-.122-2.439-.366-.488-.854.976-2.195,3.048-5.975a15.959,15.959,0,0,1,.854-1.585,2.3,2.3,0,0,0-.976-.244c-1.219,0-2.195,1.463-2.683,2.195C74.077,91.969,70.785,95.871,69.2,92.944Z" transform="translate(15.049 10.834)" fill="#1b1d1c" stroke="#000" stroke-miterlimit="10" stroke-width="1"/>
      <path id="Path_37" data-name="Path 37" d="M87.323,62.8a6.207,6.207,0,0,0,4.39-.975A6.471,6.471,0,0,0,94.151,56.7a6.181,6.181,0,0,0-1.585-4.024,6.381,6.381,0,0,0-4.512-1.951,5.933,5.933,0,0,0-5.975,2.195,5.549,5.549,0,0,0-.976,3.658c0,.244.122,3.9,3.048,5.609A9.159,9.159,0,0,0,87.323,62.8Z" transform="translate(17.655 10.985)" fill="#1b1d1c" stroke="#000" stroke-miterlimit="10" stroke-width="1"/>
      <path id="Path_38" data-name="Path 38" d="M132,91.49S130.776,96.246,122.85,81L117.363,69.42s-14.145-11.462-13.657-12.925c-.122-1.1.122-1.463.366-1.707.854-.488,2.8,1.707,6.95,4.877,2.683,2.073,4.146,3.048,5.853,3.536a11.179,11.179,0,0,0,7.682-.975,11.934,11.934,0,0,0,3.9-3.9A24.088,24.088,0,0,0,130.9,53.69a8.517,8.517,0,0,1,1.341-2.561,7.017,7.017,0,0,1,2.317-1.829s6.219,0-5.487,16.583a25.823,25.823,0,0,0,5,14.145s6.585,10,4.39,11.1-7.56-6.95-7.56-6.95S132.6,91.124,132,91.49Z" transform="translate(22.611 10.702)" fill="#028dca" stroke="#000" stroke-miterlimit="10" stroke-width="1"/>
      <path id="Path_39" data-name="Path 39" d="M119.107,60.511a5.29,5.29,0,0,0,5.243-6.219,5.739,5.739,0,0,0-2.561-4.756,5.444,5.444,0,0,0-3.414-.732,6.933,6.933,0,0,0-5.243,3.17,5.559,5.559,0,0,0-.732,2.683,6.83,6.83,0,0,0,3.048,4.877A5.937,5.937,0,0,0,119.107,60.511Z" transform="translate(24.526 10.587)" fill="#028dca" stroke="#000" stroke-miterlimit="10" stroke-width="1"/>
    </g>
  </g>
</svg>
