<svg id="Layer_1" data-name="Layer 1" xmlns="http://www.w3.org/2000/svg" viewBox="0 0 393.77 393.8"><defs><style>.cls-1{fill:#e6af2e;}.cls-2,.cls-5{fill:none;}.cls-10,.cls-2,.cls-3,.cls-4,.cls-5,.cls-6,.cls-7,.cls-8,.cls-9{stroke:#000;}.cls-3{fill:#fff6e9;}.cls-10,.cls-3,.cls-4,.cls-5,.cls-6,.cls-7,.cls-8,.cls-9{stroke-miterlimit:10;}.cls-4{fill:#fff;}.cls-6{fill:#1b1b1b;}.cls-6,.cls-8{stroke-width:0.75px;}.cls-7{fill:#1b1c1c;}.cls-8,.cls-9{fill:#028dca;}.cls-10{fill:#1b1d1c;}</style></defs><g id="Group_251" data-name="Group 251"><g id="Rectangle_42" data-name="Rectangle 42"><rect class="cls-1" x="62.86" y="62.27" width="302" height="303" rx="41" transform="translate(-105.45 191.83) rotate(-44.03)"/><rect class="cls-2" x="63.36" y="62.77" width="301" height="302" rx="40.5" transform="translate(-105.45 191.83) rotate(-44.03)"/></g><g id="ms4-logo"><path id="Path_22" data-name="Path 22" class="cls-3" d="M135,292.93a48.09,48.09,0,0,1-11.22-17.68L112.4,256.47,96.92,226.36l-6.1-8.17c.24-.49,1.22-2.68,3.05-3.05,1.34-.24,2.68.49,4.39,1.59.61.36,1.58,1.1,2.07,1.34,0,0,.85.61,1.58,1.1,4.64,3.41,13.3,18.65,13.3,18.65.36.61.61,1.1.85,1.47a8.12,8.12,0,0,0-4.39,4.14c-1.46,4,2.32,8.54,3,9.27s2.07,2.2,3.17,3.29,1.46,1.34,2.44,2.44c.85.86,1.58,1.71,3.29,3.42a33.53,33.53,0,0,0,2.92,2.92c1.71,1.71,2.69,2.56,5,5,6.22,6,6.83,7.32,10.49,10.61a53.38,53.38,0,0,0,8.42,6.22,34.39,34.39,0,0,0-5.37-8.78,22.53,22.53,0,0,0-3.54-3.29c-.73-.49-1.58-1.1-1.95-1.34-1.1-.73-1.83-1.22-2.31-1.47a20.59,20.59,0,0,1-3.66-2.92c-4.88-4.39-9-8.66-9-8.66-3.3-3.41-6.35-6.58-8.9-9.39a5.24,5.24,0,0,1-1.83-3.05,6.89,6.89,0,0,1,0-2.31,5.68,5.68,0,0,1,2.56-2.8c1.7-.74,3.66-.37,7.07,1.1a45.29,45.29,0,0,1,9.88,6.1,114.44,114.44,0,0,1,9.26,7.92L156.3,266l19.63,7.8,14,8.42,11.95,11.58s10.73,8.42,10.48,21.7,0,16.46,0,16.46l-.12.61L174,332.21v-9.63A115.62,115.62,0,0,0,151.79,304C144.84,300.13,140.33,298.3,135,292.93Z" transform="translate(-16.97 -16.87)"/><path id="Path_23" data-name="Path 23" class="cls-3" d="M156.54,261.72a6.18,6.18,0,0,1-3.66-.12c-19-14.51-26.21-19.63-28.41-20.73-1-.49-1.83-1.1-2.8-1.58-2.19-1.22-3.65-1.83-4.87-3.54-.13-.24-.25-.37-.25-.49a149.83,149.83,0,0,0-2.44-15.61L110.45,203l-.12-2.68a3.66,3.66,0,0,1,2.56-1.47c1.22,0,2.93.86,6,6.83a68.25,68.25,0,0,1,4.88,13.78c1.34,4.76,1.71,7.32,3.66,11.34.24.61,2.68,5.61,3.78,5.36.37-.12.49-1.21.49-2.19-2.2-8.78-4.39-17.56-6.59-26.46a3.48,3.48,0,0,1,1.71-2.2c1.58-.48,4,1,5.12,4.15.73,2.32,1.59,4.63,2.44,7.07,1,2.8,2.07,5.61,3.05,8.42l3.53,12.31a49.07,49.07,0,0,0,3.54,9.15,13.33,13.33,0,0,0,.73,1.34l1.22.12.37-1.1c-1.1-3.66-2.08-7.44-3.17-11.1-.25-.85-.37-1.34-.37-1.34-.37-1.1-.61-2.2-1-3.17a9.06,9.06,0,0,1-.61-3.17v-.49a3.36,3.36,0,0,1,1.58-2.44c1.22-.36,3.05,2.56,3.54,3.42,2.19,3.65,2.56,6.46,4,11.7.61,2.32,1.34,4.64,2.68,9.27,1.22,3.9,2.32,7.07,3,9.27a2.88,2.88,0,0,1,.37,1.95A2,2,0,0,1,156.54,261.72Z" transform="translate(-16.97 -16.87)"/><path id="Path_24" data-name="Path 24" class="cls-3" d="M215.56,332.93l37.68.37c0-2.8-.12-5.73-.12-8.54-.13-4.26,7.8-10.12,11.34-12.19s26.46-18.29,26.46-18.29,8.78-8.42,11.7-17.32,14.27-22.8,15.49-25.6,18.05-32.8,18.05-32.8c.48-1.22.36-1.83.12-2.2-1.1-1.71-6.83.37-8.66,1.1l-6.71,7.07-8.53,12.93s-.61,2.32,1,3,5.24,4.14,2.93,7.31l-3.42,5.61-6.46,9-6,6.83-9.15,7L277,286.6a5,5,0,0,1,.37-1.83,4.52,4.52,0,0,1,1.1-1.83,33.61,33.61,0,0,1,2.8-3.05c2.68-2.32,2.32-2.56,4.51-4.39,1.71-1.46,1.95-1.34,6.1-4.14,2.44-1.59,3.78-2.57,5.24-3.66a53.43,53.43,0,0,0,6.47-6.47,95.21,95.21,0,0,0,8-10.48l1.58-2.08s1.83-6.46-4.76-5.73-8,2.56-8,2.56l-7.56,4.76s-6.47,5.24-8.66,7.19-4.88,4.88-7.07,5.86-9.64,3.78-9.64,3.78l-12.43,5-9.64,5.36-10,7.2-9,7.68-6.83,8.05a18.88,18.88,0,0,0-2.92,5.61,34.75,34.75,0,0,0-1,3.9,29.77,29.77,0,0,0-.49,5.73C215.07,322.08,215.56,332.44,215.56,332.93Z" transform="translate(-16.97 -16.87)"/><path id="Path_25" data-name="Path 25" class="cls-4" d="M327.86,215.75" transform="translate(-16.97 -16.87)"/><path id="Path_26" data-name="Path 26" class="cls-3" d="M310.67,233.8l-.73,1.58-16.71,12L272.87,262s-6.46,2.08-4-1.21a36.14,36.14,0,0,0,4-8.78c1-3.78,2.07-7.56,3.05-11.34a36.45,36.45,0,0,1,6.34-12.2c1-1.1,3.05-3.66,4-3.29s.49,2.68.37,3.9l-2.56,8.78-3.78,11.58a1.25,1.25,0,0,0,1-.24,8.44,8.44,0,0,0,2.8-4.27c1.22-4.27,2.93-8.41,4.15-12.8.61-2.07,1.22-3.78,1.58-5,1.1-3.41,2.08-7,3.17-10.36a25.82,25.82,0,0,1,3.42-6.22,29.38,29.38,0,0,1,3.17-3.78c.73-.61,1.71-1.34,2.44-1s.49,2.8.36,3.78c-1.58,9.51-6.1,26.34-6.1,26.34h0a16.4,16.4,0,0,0,3.78-4.39c2.56-4.15,2.69-7.8,3.54-12.56a66.07,66.07,0,0,1,3.54-12.56,13.36,13.36,0,0,1,2.56-5.12c1.1-1.22,3-3.54,5.48-3.17a4.05,4.05,0,0,1,2.8,1.71c1,1.34.49,3.17-.24,5.6-1.22,4-2.32,7-2.68,8.05a65.9,65.9,0,0,0-2.69,11A57.4,57.4,0,0,0,310.67,233.8Z" transform="translate(-16.97 -16.87)"/><path id="Path_27" data-name="Path 27" class="cls-4" d="M330.91,206.48" transform="translate(-16.97 -16.87)"/><path id="Path_28" data-name="Path 28" class="cls-5" d="M103.74,250" transform="translate(-16.97 -16.87)"/><path id="Path_29" data-name="Path 29" class="cls-5" d="M127,252.82" transform="translate(-16.97 -16.87)"/><path id="Path_30" data-name="Path 30" class="cls-5" d="M163.74,277.57" transform="translate(-16.97 -16.87)"/><path id="Path_31" data-name="Path 31" class="cls-5" d="M139.11,243.68" transform="translate(-16.97 -16.87)"/><path id="Path_32" data-name="Path 32" class="cls-6" d="M211.78,263.67c2.32-1.7,4.39-3,5.85-4.14,1.71-1.22,2.69-1.83,3.78-2.56.61-.37,1.83-1.22,3.54-2.2l1.83-1.1,3.05-1.83c.85-.49,2.56-1.46,5.85-3.29,2.93-1.71,3.41-2,4.76-2.68,5.73-3.42,12.07-7.56,12.07-7.56,8.66-5.73,13-8.54,16.58-11.22s8.66-6.59,14.39-11.71a88.1,88.1,0,0,0,18.78-24.63,98.69,98.69,0,0,0,4.39-11.83A80.93,80.93,0,0,0,309.21,167a49.3,49.3,0,0,0,.61-8.41,55,55,0,0,0-1-7.68,72.33,72.33,0,0,0-1.58-7.44,65.33,65.33,0,0,0-2.32-6.83,42.61,42.61,0,0,0-3.78-6.46,34.37,34.37,0,0,0-5.12-6,47.09,47.09,0,0,0-7.44-5.48,72.5,72.5,0,0,0-6.7-3.66c-2-.73-3.9-1.46-6-2.07-6.71-1.95-12.92-2.44-13.05-2.08s8.05,1,17.56,6.34a57.59,57.59,0,0,1,10.73,7.8,31.39,31.39,0,0,1,7.2,10.13c1.46,3.29,1.95,5.85,2.8,10.85a86.1,86.1,0,0,1,1.34,11.22,53.24,53.24,0,0,1-.25,7.68,51.41,51.41,0,0,1-2.43,10.37,70.67,70.67,0,0,1-8.17,18.65c-1.22,1.83-2.68,4-4.63,6.46a104.35,104.35,0,0,1-8.3,9.64,135.35,135.35,0,0,1-15.36,13.65c-2.56,2.08-9,7-17.93,12.8-3.17,2.08-18.65,11.47-22.92,15.37l-2.93,2.68c-2.8,2.56-3.17,2.93-3.65,3.42A38.16,38.16,0,0,0,211.78,263.67Z" transform="translate(-16.97 -16.87)"/><path id="Path_33" data-name="Path 33" class="cls-7" d="M302.26,118a64.65,64.65,0,0,0-14.88-14.51A75,75,0,0,0,274.94,98a69,69,0,0,0-12.92-3,66.6,66.6,0,0,0-25.85,3.66A53.06,53.06,0,0,0,215.93,113a24.68,24.68,0,0,0-6.59,14.14l-.12,4.15a31,31,0,0,1,2.56-6.59,31.91,31.91,0,0,1,4.63-6.82,58.37,58.37,0,0,1,8.3-7.08,57.65,57.65,0,0,1,7.31-4.51A58.72,58.72,0,0,1,251.9,101a65.61,65.61,0,0,1,20.12.61,66.91,66.91,0,0,1,7.19,2.32,98.74,98.74,0,0,1,9.39,3.9,46.35,46.35,0,0,1,4.76,2.8,61.46,61.46,0,0,1,5.24,4.14C299.94,116,301.28,117.23,302.26,118Z" transform="translate(-16.97 -16.87)"/><path id="Path_34" data-name="Path 34" class="cls-8" d="M220,264.16c-2.32-1.71-4.39-3.05-5.85-4.14-1.71-1.22-2.69-1.83-3.78-2.57-.61-.36-1.83-1.21-3.54-2.19l-1.83-1.1c-1.46-.85-2.32-1.34-3-1.83s-2.56-1.46-5.85-3.29c-2.93-1.71-3.41-1.95-4.76-2.68-5.73-3.42-12.07-7.56-12.07-7.56-8.66-5.74-13-8.54-16.58-11.22S154,221,148.25,215.87a85.53,85.53,0,0,1-18.66-24.63,91.8,91.8,0,0,1-7.06-23.78,38.78,38.78,0,0,1-.49-8.41,55,55,0,0,1,1-7.68,72.37,72.37,0,0,1,1.59-7.44,63.09,63.09,0,0,1,2.32-6.83,44.67,44.67,0,0,1,8.9-12.44,47.47,47.47,0,0,1,7.43-5.48,71.4,71.4,0,0,1,6.71-3.66c1.95-.73,3.9-1.46,6-2.07,6.7-2,12.92-2.44,13-2.08s-8,1-17.56,6.34a58.26,58.26,0,0,0-10.73,7.8,31.32,31.32,0,0,0-7.19,10.13c-1.47,3.29-1.95,5.85-2.8,10.85a83.17,83.17,0,0,0-1.34,11.22,53.24,53.24,0,0,0,.24,7.68A44.37,44.37,0,0,0,132,175.75a72.08,72.08,0,0,0,8.05,18.54c1.22,1.83,2.68,4,4.64,6.46a105.52,105.52,0,0,0,8.29,9.76,136.33,136.33,0,0,0,15.36,13.65A219.22,219.22,0,0,0,186.3,237c3.17,2.08,18.65,11.46,22.92,15.37l2.93,2.68a45.3,45.3,0,0,1,3.65,3.41C217.27,260.38,218.73,262.21,220,264.16Z" transform="translate(-16.97 -16.87)"/><path id="Path_35" data-name="Path 35" class="cls-9" d="M125.08,118.2A64.85,64.85,0,0,1,140,103.69,75.3,75.3,0,0,1,165.44,95a66,66,0,0,1,13.9.74,67.89,67.89,0,0,1,11.95,2.92,53.17,53.17,0,0,1,20.25,14.39,24.67,24.67,0,0,1,6.58,14.15l.12,4.14a31.17,31.17,0,0,0-2.56-6.58,32,32,0,0,0-4.63-6.83,64.91,64.91,0,0,0-8.29-7.07,56.71,56.71,0,0,0-7.32-4.52,62.53,62.53,0,0,0-10.12-3.53,52,52,0,0,0-9.76-1.59,75.49,75.49,0,0,0-8.9-.49A69.39,69.39,0,0,0,155.44,102a72.53,72.53,0,0,0-7.19,2.32,99.84,99.84,0,0,0-9.39,3.9,30.53,30.53,0,0,0-4.75,2.8c-1.83,1.34-3.54,2.68-5.25,4.15A29.16,29.16,0,0,0,125.08,118.2Z" transform="translate(-16.97 -16.87)"/><path id="Path_36" data-name="Path 36" class="cls-10" d="M174.47,198.07l11.83-23.65s-10.86-16.59-7.81-18.66c0,0,1.34-5.37,11.22,12.92,0,0,8.17,8.3,22.68-9.26,0,0,5,5.48-14.75,18.29a47.71,47.71,0,0,1-13.42,21.58c-1.7.25-2.19-.12-2.44-.36-.48-.86,1-2.2,3.05-6a16.1,16.1,0,0,1,.86-1.58,2.26,2.26,0,0,0-1-.25c-1.22,0-2.2,1.46-2.68,2.2C179.34,197.1,176.05,201,174.47,198.07Z" transform="translate(-16.97 -16.87)"/><path id="Path_37" data-name="Path 37" class="cls-10" d="M195.2,168.08a6.2,6.2,0,0,0,4.39-1A6.48,6.48,0,0,0,202,162a6.19,6.19,0,0,0-1.58-4,6.44,6.44,0,0,0-4.51-1.95,5.94,5.94,0,0,0-6,2.2,5.54,5.54,0,0,0-1,3.66c0,.24.12,3.9,3,5.61A9.35,9.35,0,0,0,195.2,168.08Z" transform="translate(-16.97 -16.87)"/><path id="Path_38" data-name="Path 38" class="cls-9" d="M244.83,196.49s-1.22,4.75-9.15-10.49l-5.49-11.58S216.05,163,216.54,161.49c-.13-1.1.12-1.46.36-1.71.86-.48,2.8,1.71,6.95,4.88,2.68,2.07,4.15,3.05,5.85,3.54a11.21,11.21,0,0,0,7.69-1,12,12,0,0,0,3.9-3.9,23.8,23.8,0,0,0,2.44-4.63,8.64,8.64,0,0,1,1.34-2.57,6.88,6.88,0,0,1,2.32-1.82s6.22,0-5.49,16.58a25.8,25.8,0,0,0,5,14.14s6.59,10,4.39,11.1-7.56-7-7.56-7S245.43,196.12,244.83,196.49Z" transform="translate(-16.97 -16.87)"/><path id="Path_39" data-name="Path 39" class="cls-9" d="M233.85,165.39a5.29,5.29,0,0,0,5.33-5.25,5.23,5.23,0,0,0-.09-1,5.7,5.7,0,0,0-2.56-4.75,5.42,5.42,0,0,0-3.41-.74,6.94,6.94,0,0,0-5.24,3.17,5.66,5.66,0,0,0-.74,2.69,6.83,6.83,0,0,0,3.05,4.87A5.94,5.94,0,0,0,233.85,165.39Z" transform="translate(-16.97 -16.87)"/></g></g></svg>