<?xml version="1.0" encoding="utf-8"?>
<!-- Generator: Adobe Illustrator 25.2.1, SVG Export Plug-In . SVG Version: 6.00 Build 0)  -->
<svg version="1.1" id="Layer_1" xmlns="http://www.w3.org/2000/svg" xmlns:xlink="http://www.w3.org/1999/xlink" x="0px" y="0px"
	 viewBox="0 0 257 271" style="enable-background:new 0 0 257 271;" xml:space="preserve">
<style type="text/css">
	.st0{fill:#D67B7B;}
	.st1{fill:#CBBBA0;stroke:#1D1D1B;stroke-miterlimit:10;}
	.st2{fill:#FFFFFF;stroke:#1D1D1B;stroke-miterlimit:10;}
	.st3{fill:none;stroke:#1D1D1B;stroke-miterlimit:10;}
	.st4{fill:#1B1B1B;stroke:#1B1B1B;stroke-width:0.75;stroke-miterlimit:10;}
	.st5{fill:#1B1C1C;stroke:#1B1B1B;stroke-miterlimit:10;}
	.st6{fill:#028DCA;stroke:#028DCA;stroke-width:0.75;stroke-miterlimit:10;}
	.st7{fill:#028DCA;stroke:#028DCA;stroke-miterlimit:10;}
	.st8{fill:#1B1D1C;stroke:#1B1D1C;stroke-miterlimit:10;}
	.st9{fill:none;stroke:#8F0EAF;stroke-miterlimit:10;}
</style>
<g id="Layer_1_1_">
	<path class="st0" d="M83,271h89.5l-0.5-8.9c0,0-6.4,0.4-7.9-2.6c0,0-13.3,0.5-14-6c0,0-8.2-46.3-5.4-47.8c5.5-2,23.9-14,37.4-34.1
		c0,0,16,0.5,28.4-7.2c9.9-6.2,15-11.9,18.1-24.8c0,0,32.4-98.2,28.4-98.1c-45.9,0-40.7,2.1-40.7-41.1L39.8,0
		c0,42.5-0.6,42.6-39.1,42.6c0,0-2.3,5.9,1.6,15.1l22.9,85.2c0,0,4.4,28.2,50.2,29.5c9.2,13.7,21.3,25.2,35.5,33.7
		c0.1,6-0.1,11.3-0.4,15.7c-0.5,6.4-0.7,4.2-2.7,19.6c-0.4,4.7-1.6,9.2-3.4,13.5c-0.5,1.2-1,2.1-1.3,2.7c-3.5,1.5-7.2,2.1-11,1.9
		c0,0-1.8,3.6-8.2,2.8L83,271"/>
	<path class="st1" d="M80.6,160c-2.9-2.8-5.2-6.2-6.6-10l-6.7-10.6l-9-17.1l-3.6-4.7c0.1-0.3,0.7-1.6,1.8-1.8
		c0.8-0.1,1.6,0.3,2.6,0.9c0.4,0.2,0.9,0.6,1.2,0.8l0.9,0.7c2.7,1.9,7.8,10.6,7.8,10.6c0.2,0.4,0.4,0.6,0.5,0.8
		c-1.2,0.4-2.1,1.3-2.6,2.4c-0.8,2.3,1.4,4.8,1.8,5.3s1.2,1.3,1.9,1.9s0.8,0.8,1.4,1.4c0.6,0.6,0.9,0.9,1.9,1.9
		c0.7,0.7,1.2,1.2,1.7,1.7c1,1,1.5,1.5,2.9,2.8c3.6,3.4,4,4.2,6.2,6c1.5,1.3,3.2,2.5,4.9,3.5c-0.8-1.8-1.8-3.5-3.2-5
		c-0.6-0.7-1.3-1.3-2.1-1.8c-0.4-0.3-0.9-0.6-1.1-0.8c-0.7-0.4-1.1-0.7-1.4-0.9c-0.8-0.5-1.5-1-2.2-1.7c-2.9-2.5-5.3-4.9-5.3-4.9
		c-2-2-3.7-3.8-5.2-5.3c-0.5-0.5-0.9-1.1-1.1-1.7c-0.1-0.4-0.1-0.9,0-1.3c0.3-0.7,0.8-1.3,1.5-1.6c1-0.4,2.1-0.2,4.1,0.6
		c2.1,0.9,4,2.1,5.8,3.4c1.9,1.4,3.7,2.9,5.4,4.5l8,4.7l11.5,4.4l8.2,4.8l7,6.5c0,0,6.3,4.8,6.2,12.3s0,9.3,0,9.3l-0.1,0.3
		l-22.5-0.2V177c-3.9-4-8.3-7.6-13.1-10.5C86.4,164,83.8,163,80.6,160z"/>
	<path class="st1" d="M93.3,142.3c-0.7,0.2-1.5,0.2-2.2-0.1C80,133.9,75.8,131,74.5,130.4c-0.6-0.3-1.1-0.6-1.6-0.9
		c-1.1-0.4-2.1-1.1-2.9-2c-0.1-0.1-0.1-0.2-0.2-0.3c-0.4-2.8-0.7-5.8-1.4-8.8l-2.2-9.5l-0.1-1.5c0.4-0.5,0.9-0.8,1.5-0.8
		c0.7,0,1.7,0.5,3.5,3.9c1.2,2.5,2.2,5.1,2.9,7.8c0.5,2.2,1.2,4.4,2.1,6.4c0.2,0.3,1.6,3.2,2.2,3c0.2-0.1,0.3-0.7,0.3-1.2l-3.9-15
		c0.1-0.5,0.5-1,1-1.2c0.9-0.3,2.4,0.6,3,2.3c0.4,1.3,0.9,2.7,1.4,4c0.6,1.6,1.2,3.2,1.8,4.8l2.1,7c0.5,1.8,1.2,3.6,2.1,5.2
		c0.1,0.3,0.3,0.5,0.4,0.8h0.7l0.2-0.6l-1.9-6.3l-0.2-0.8c-0.2-0.6-0.4-1.2-0.5-1.8c-0.2-0.6-0.3-1.2-0.3-1.8c0-0.1,0-0.2,0-0.2
		c0.1-0.6,0.4-1.1,0.9-1.4c0.8-0.2,1.8,1.5,2.1,2c1.3,2.1,1.5,3.6,2.3,6.7c0.3,1.3,0.8,2.6,1.6,5.2c0.7,2.2,1.3,4,1.8,5.2
		c0.2,0.3,0.3,0.7,0.2,1.1C93.5,141.9,93.4,142.1,93.3,142.3z"/>
	<path class="st1" d="M128,182.6l22.1,0.2L150,178c0,0,4.6-5.8,6.7-7s15.6-10.4,15.6-10.4s5.2-4.7,6.9-9.8s8.4-12.9,9.1-14.5
		s10.6-18.6,10.6-18.6c0.3-0.7,0.2-1,0.1-1.2c-0.7-1-4,0.2-5.1,0.6l-4,4l-5,7.4c0,0-0.4,1.3,0.6,1.7s3.1,2.3,1.7,4.1l-2,3.1
		l-3.8,5.1l-3.5,3.9l-5.4,4l-8.4,5.9c0-0.3,0.1-0.7,0.2-1c0.2-0.4,0.4-0.7,0.7-1.1c0.5-0.6,1.1-1.2,1.7-1.7c1.6-1.3,1.3-1.4,2.6-2.5
		c1.1-0.8,2.3-1.6,3.6-2.3c1.4-0.9,2.2-1.4,3.1-2.1c1.4-1.1,2.7-2.3,3.8-3.6c1.7-1.9,3.3-3.9,4.7-6l0.9-1.2c0,0,1.1-3.6-2.8-3.2
		s-4.7,1.4-4.7,1.4l-4.4,2.7c0,0-3.8,3-5.1,4.1c-1.2,1.3-2.6,2.4-4.1,3.3c-1.2,0.6-5.6,2.1-5.6,2.1l-7.3,2.9l-5.7,3l-5.9,4.1
		l-5.3,4.4l-4,4.6c-0.7,1-1.3,2-1.7,3.1c-0.3,0.7-0.4,1.5-0.6,2.2c-0.2,1.1-0.3,2.2-0.3,3.2C127.8,176.5,128,182.4,128,182.6z"/>
	<path class="st2" d="M194,116.2"/>
	<path class="st1" d="M183.9,126.5l-0.5,0.9l-9.8,6.7l-12,8.3c0,0-3.8,1.2-2.4-0.7c1-1.5,1.8-3.2,2.4-4.9l1.8-6.4
		c0.8-2.5,2-4.9,3.7-6.9c0.5-0.6,1.8-2.1,2.4-1.8s0.3,1.5,0.2,2.2c-0.5,1.7-1,3.3-1.5,5l-2.2,6.5c0,0,0.2,0.1,0.6-0.2
		c0.8-0.6,1.4-1.5,1.6-2.4c0.7-2.4,1.7-4.8,2.5-7.2c0.4-1.2,0.7-2.2,0.9-2.9l1.8-5.9c0.5-1.3,1.2-2.5,2-3.6c0.6-0.8,1.2-1.5,1.8-2.1
		c0.4-0.3,1-0.7,1.4-0.6s0.3,1.6,0.2,2.2c-0.9,5.4-3.6,14.9-3.6,14.9l0,0c0.9-0.7,1.6-1.5,2.2-2.5c1.5-2.3,1.6-4.4,2.1-7.1
		c0.5-2.4,1.1-4.8,2.1-7.1c0.3-1.1,0.8-2.1,1.5-2.9c0.6-0.7,1.8-2,3.2-1.8c0.6,0.1,1.2,0.4,1.6,0.9c0.5,0.8,0.3,1.8-0.1,3.2
		c-0.7,2.3-1.4,3.9-1.6,4.5c-0.7,2-1.2,4.1-1.6,6.3C184.4,122.6,184.1,124.4,183.9,126.5z"/>
	<path class="st2" d="M195.8,111"/>
	<path class="st3" d="M61.3,168.7"/>
	<path class="st3" d="M76,137.2"/>
	<path class="st3" d="M97.6,151.3"/>
	<path class="st3" d="M83.1,132.1"/>
	<path class="st4" d="M125.8,143.4c1.4-1,2.5-1.8,3.4-2.4s1.6-1.1,2.2-1.5c0.4-0.2,1.1-0.7,2.1-1.2l1.1-0.6c0.9-0.5,1.4-0.8,1.8-1
		s1.5-0.8,3.4-1.9c1.7-0.9,2-1.1,2.8-1.5c3.4-1.9,7.1-4.3,7.1-4.3c5.1-3.2,7.6-4.8,9.7-6.3s5.1-3.8,8.4-6.7c2.5-2.3,4.9-4.8,6.9-7.5
		c1.5-2.1,2.9-4.2,4.1-6.5c1-2.2,1.9-4.4,2.6-6.7c0.7-2.2,1.2-4.5,1.6-6.8c0.3-1.6,0.4-3.2,0.3-4.8c-0.1-1.5-0.3-2.9-0.6-4.4
		c-0.2-1.4-0.6-2.8-0.9-4.2c-0.4-1.3-0.8-2.6-1.4-3.8c-1.3-2.6-3.1-5-5.2-7c-1.4-1.1-2.8-2.2-4.4-3.1c-1.3-0.8-2.6-1.5-4-2.1
		c-1.1-0.5-2.3-0.8-3.5-1.2c-3.9-1.1-7.6-1.4-7.6-1.2s4.7,0.6,10.3,3.6c2.3,1.2,4.4,2.7,6.3,4.5c1.8,1.6,3.2,3.6,4.2,5.7
		c0.8,2,1.4,4,1.7,6.2c0.4,2.1,0.7,4.2,0.8,6.3c0.1,1.4,0,2.9-0.2,4.3c-0.2,2-0.7,4-1.4,5.9c-0.4,1.6-1,3.1-1.6,4.6
		c-0.9,2.1-1.9,4.1-3.2,6c-0.7,1-1.6,2.3-2.7,3.7c-1.5,1.9-3.1,3.8-4.9,5.5c-2.8,2.8-5.8,5.4-9,7.7c-1.5,1.1-5.3,3.9-10.5,7.3
		c-1.9,1.2-11,6.5-13.5,8.7l-1.7,1.5c-1.6,1.4-1.8,1.6-2.1,1.9C127.4,141.2,126.5,142.2,125.8,143.4z"/>
	<path class="st5" d="M178.9,60.8c-1.3-1.7-2.8-3.3-4.4-4.8c-1.4-1.2-2.8-2.4-4.4-3.4c-2.3-1.3-4.8-2.3-7.3-3.1
		c-2.5-0.8-5.1-1.4-7.7-1.8c-5.1-0.3-10.3,0.4-15.2,2.1c-2,0.8-4,1.8-5.8,3c-2.3,1.5-4.3,3.2-6.1,5.2c-1,1.1-1.9,2.3-2.6,3.6
		c-0.7,1.4-1.1,2.9-1.3,4.4l-0.1,2.3c0.4-1.3,0.9-2.6,1.5-3.7c0.7-1.4,1.6-2.7,2.7-3.9c1.5-1.5,3.1-2.8,4.9-4c1.4-1,2.8-1.8,4.3-2.6
		c1.9-0.8,3.9-1.5,5.9-2c1.9-0.5,3.8-0.8,5.7-0.9c1.7-0.2,3.5-0.3,5.2-0.3c2.2,0,4.4,0.3,6.6,0.7c1.3,0.4,2.7,0.8,4.2,1.3
		c2,0.7,3.9,1.5,5.5,2.2c1,0.5,1.9,1,2.8,1.6c1.1,0.7,2.1,1.5,3.1,2.3C177.6,59.7,178.4,60.4,178.9,60.8z"/>
	<path class="st6" d="M130.6,143.7c-1.4-1-2.5-1.8-3.4-2.4s-1.6-1.1-2.2-1.5c-0.4-0.2-1.1-0.7-2.1-1.2l-1.1-0.6
		c-0.9-0.5-1.4-0.8-1.8-1s-1.5-0.8-3.4-1.9c-1.7-0.9-2-1.1-2.8-1.5c-3.4-1.9-7.1-4.3-7.1-4.3c-5.1-3.2-7.6-4.8-9.7-6.3
		c-2.1-1.5-5.1-3.8-8.4-6.7c-4.5-4-8.2-8.7-11-14c-2-4.3-3.4-8.8-4.1-13.4c-0.3-1.6-0.4-3.2-0.4-4.7c0.1-1.5,0.3-2.9,0.6-4.4
		c0.3-1.4,0.6-2.8,1-4.2c0.4-1.3,0.8-2.6,1.4-3.8c0.6-1.3,1.4-2.5,2.2-3.7c0.9-1.2,1.9-2.3,3-3.4c2.5-2.1,5.3-3.9,8.3-5.2
		c1.2-0.5,2.3-0.8,3.5-1.2c3.9-1.1,7.6-1.4,7.6-1.2c0.1,0.2-4.7,0.6-10.3,3.6c-2.3,1.2-4.4,2.7-6.3,4.5c-1.8,1.6-3.2,3.6-4.2,5.7
		c-0.9,2-1.5,4-1.8,6.2c-0.4,2.1-0.7,4.2-0.8,6.3c-0.1,1.5,0,2.9,0.2,4.3c0.2,2,0.7,4,1.4,5.8c0.4,1.6,1,3.1,1.6,4.6
		c0.9,2.1,1.9,4.1,3.2,6c0.7,1,1.6,2.3,2.7,3.7c1.5,1.9,3.1,3.8,4.9,5.5c2.8,2.8,5.8,5.4,9,7.7c1.5,1.1,5.3,3.9,10.5,7.3
		c1.9,1.2,10.9,6.5,13.5,8.7l1.7,1.6c1.6,1.4,1.8,1.6,2.1,1.9C129,141.5,129.8,142.5,130.6,143.7z"/>
	<path class="st7" d="M74.8,61c1.3-1.7,2.8-3.3,4.4-4.8c1.4-1.2,2.8-2.4,4.3-3.4c4.7-2.5,9.7-4.2,15-4.9c2.7-0.1,5.5,0,8.2,0.4
		c2.4,0.4,4.7,0.9,7,1.7c2,0.8,4,1.8,5.8,3c2.3,1.5,4.3,3.2,6.1,5.2c1,1.1,1.9,2.3,2.6,3.6c0.7,1.4,1.1,2.9,1.3,4.4l0.1,2.3
		c-0.8-2.8-2.2-5.4-4.2-7.6c-1.5-1.5-3.1-2.8-4.9-4c-1.4-1-2.8-1.8-4.3-2.6c-1.9-0.8-3.9-1.5-5.9-2c-1.9-0.5-3.8-0.8-5.7-0.9
		c-1.7-0.2-3.5-0.3-5.2-0.3c-2.2,0-4.4,0.3-6.6,0.7c-1.3,0.4-2.7,0.8-4.2,1.3c-2,0.7-3.9,1.5-5.5,2.2c-1,0.5-1.9,1-2.8,1.6
		c-1.1,0.7-2.1,1.4-3.1,2.2C76.2,59.8,75.4,60.5,74.8,61z"/>
	<path class="st8" d="M103.8,106.2l6.9-13.4c0,0-6.4-9.4-4.6-10.6c0,0,0.8-3,6.6,7.3c0,0,4.8,4.7,13.3-5.3c0,0,2.9,3.1-8.7,10.4
		c-0.6,2.1-1.5,4-2.7,5.9c-1.4,2.4-3.2,4.5-5.2,6.3c-1,0.1-1.3,0-1.4-0.2c-0.3-0.4,0.6-1.2,1.8-3.4c0.2-0.4,0.4-0.7,0.5-0.9
		c-0.2-0.1-0.4-0.1-0.6-0.1c-0.8,0-1.3,0.8-1.6,1.3C106.7,105.6,104.8,107.9,103.8,106.2z"/>
	<path class="st8" d="M116,89.2c0.9,0.1,1.8-0.1,2.6-0.6c0.9-0.7,1.4-1.8,1.4-2.9c0-0.9-0.4-1.7-1-2.3c-0.7-0.7-1.6-1.1-2.6-1.1
		c-1.3-0.3-2.7,0.2-3.5,1.2c-0.4,0.6-0.6,1.4-0.5,2.1c0,1.3,0.7,2.5,1.8,3.2C114.7,89.1,115.4,89.2,116,89.2z"/>
	<path class="st7" d="M145.2,105.3c0,0-0.7,2.7-5.4-6l-3.2-6.5c0,0-8.3-6.5-8-7.3c-0.1-0.6,0.1-0.8,0.2-0.9c0.5-0.3,1.6,1,4.1,2.8
		c1,0.9,2.2,1.6,3.4,2c1.5,0.3,3.1,0.1,4.5-0.6c0.9-0.5,1.7-1.3,2.3-2.2c0.6-0.8,1.1-1.7,1.5-2.6c0.2-0.5,0.5-1,0.8-1.5
		c0.4-0.4,0.8-0.8,1.3-1c0,0,3.6,0-3.2,9.4c0.2,2.9,1.2,5.7,2.9,8c0,0,3.9,5.7,2.6,6.3s-4.4-4-4.4-4S145.6,105.1,145.2,105.3z"/>
	<path class="st7" d="M138.8,87.7c1.7,0,3-1.3,3-3c0-0.2,0-0.3,0-0.5c0-1.7-1.3-3.1-3-3.1c-0.2,0-0.3,0-0.5,0
		c-1.2,0.1-2.4,0.8-3.1,1.8c-0.3,0.5-0.4,1-0.4,1.6C135.1,86.4,136.8,87.9,138.8,87.7L138.8,87.7z"/>
	<path class="st0" d="M-151.8,116.9"/>
	<polygon class="st9" points="-241.1,193.3 -220.9,217.5 -192.5,224.2 -163.1,166.4 	"/>
	<polygon class="st9" points="411.3,190.6 391.7,214.8 364,221.5 335.3,163.7 	"/>
	<path class="st0" d="M334.9,291.8"/>
</g>
<g id="Layer_2_1_">
	<path class="st3" d="M154.1,109.3"/>
	<path class="st3" d="M153.5,107.8"/>
	<path class="st3" d="M160.8,98.9"/>
	<path class="st3" d="M146.8,113.6"/>
	<path class="st3" d="M82.4,104"/>
</g>
</svg>
