<svg xmlns="http://www.w3.org/2000/svg" width="57.259" height="49.737" viewBox="0 0 57.259 49.737">
  <g id="Group_258" data-name="Group 258" transform="translate(0)">
    <path id="Path_52" data-name="Path 52" d="M837.76,437.317l7.106,8.568,20.48-5.432-6.269-9.823Z" transform="translate(-836.926 -430.63)" fill="#fff"/>
    <path id="Path_53" data-name="Path 53" d="M968.109,431.55l21.317,6.478L982.32,446.6l-20.48-5.432Z" transform="translate(-932.792 -431.341)" fill="#fff"/>
    <path id="Path_54" data-name="Path 54" d="M834.09,507.919l21.733,6.48,6.478-9.4-20.689-5.434Z" transform="translate(-834.09 -483.887)" fill="#fff"/>
    <path id="Path_55" data-name="Path 55" d="M962.76,504.785l6.687,9.821,21.315-6.687-7.313-8.359Z" transform="translate(-933.503 -483.887)" fill="#fff"/>
    <path id="Path_56" data-name="Path 56" d="M867.17,536.537v14l20.689,7.94-.209-26.749-6.06,9.2Z" transform="translate(-859.648 -508.742)" fill="#fff"/>
    <path id="Path_57" data-name="Path 57" d="M961.84,530.81l6.687,9.614,14.627-4.388-.207,13.793-20.9,7.94Z" transform="translate(-932.792 -508.031)" fill="#fff"/>
  </g>
</svg>
