<svg xmlns="http://www.w3.org/2000/svg" width="65.872" height="57.482" viewBox="0 0 65.872 57.482">
  <g id="Group_265" data-name="Group 265" transform="translate(0 0)" fill="#fff">
    <g id="Group_263" data-name="Group 263" transform="translate(17.633)">
      <path id="Path_63" data-name="Path 63" d="M934.907,415.033,914.5,450.018l6.458-.518s17.868-29.971,18.725-31.765C941.065,414.845,937.484,411.7,934.907,415.033Z" transform="translate(-909.543 -413.601)"/>
      <path id="Path_64" data-name="Path 64" d="M894.564,591.21l-1.523,2.058-.048.9.282.566s.33-1.273-.377.566c-1.037,2.4,2.215,4.855,4.714,2.4a11.849,11.849,0,0,0,.989-.659l1.414-1.885.141-.566v-.471l-.282-.518,1.648-2.64Z" transform="translate(-892.699 -550.632)"/>
      <path id="Path_65" data-name="Path 65" d="M916.958,603.39l12.82,1.319,1.13,13.008L913.47,608.2S918.088,607.633,916.958,603.39Z" transform="translate(-908.747 -560.236)"/>
    </g>
    <g id="Group_264" data-name="Group 264" transform="translate(0 27.197)">
      <path id="Path_66" data-name="Path 66" d="M828.176,543.765l-8.42-4.147-1.571-.816s-2.451-1.635-2.829.439c0,.252-.816,8.231.816,13.134.064.125.944,1.508,2.451.125-.064.064,9.991-6.6,9.991-6.6s18.222.566,34.184-1.821a5.31,5.31,0,0,1,.566.5l.566,1.949a15.5,15.5,0,0,1,0,3.9c.064.064-.189,1.069,1.069.944.064.064,16.024-1.383,16.024-1.383l-16.212.314-.314-4.084,16.149-1.319-16.087.439-.439-4.775,16.149-1.446-16.087.377s0-4.9-.377-4.964c0,.125,16.276-1.319,16.276-1.319l-15.771.377s-1.319-.314-1.257.944c0,.125,1.005,3.2.189,5.341l-.189,1.76S829.559,542.946,828.176,543.765Z" transform="translate(-815.153 -533.21)"/>
      <path id="Path_67" data-name="Path 67" d="M831.325,572.577s-1.085,4.477.377,6.269c.048.048.093.612,2.4-.377a11.173,11.173,0,0,0,3.581-3.015c0,.048-3.111-2.874-5.184-2.97C832.5,572.53,831.559,572.107,831.325,572.577Z" transform="translate(-827.349 -563.453)" fill="#038dc9"/>
    </g>
  </g>
</svg>
